<?xml version="1.0" encoding="UTF-8" standalone="no"?>
<!-- Created with Inkscape (http://www.inkscape.org/) -->

<svg
   xmlns:dc="http://purl.org/dc/elements/1.1/"
   xmlns:cc="http://creativecommons.org/ns#"
   xmlns:rdf="http://www.w3.org/1999/02/22-rdf-syntax-ns#"
   xmlns:svg="http://www.w3.org/2000/svg"
   xmlns="http://www.w3.org/2000/svg"
   xmlns:sodipodi="http://sodipodi.sourceforge.net/DTD/sodipodi-0.dtd"
   xmlns:inkscape="http://www.inkscape.org/namespaces/inkscape"
   width="500"
   height="500"
   id="svg4095"
   version="1.1"
   inkscape:version="0.48.4 r9939"
   sodipodi:docname="New document 2">
  <defs
     id="defs4097" />
  <sodipodi:namedview
     id="base"
     pagecolor="#ffffff"
     bordercolor="#000000"
     borderopacity="1.0"
     inkscape:pageopacity="1.0"
     inkscape:pageshadow="0"
     inkscape:zoom="1.36"
     inkscape:cx="101.28085"
     inkscape:cy="215.51391"
     inkscape:document-units="px"
     inkscape:current-layer="layer1"
     showgrid="false"
     inkscape:window-width="1920"
     inkscape:window-height="1057"
     inkscape:window-x="-8"
     inkscape:window-y="-8"
     inkscape:window-maximized="1" />
  <metadata
     id="metadata4100">
    <rdf:RDF>
      <cc:Work
         rdf:about="">
        <dc:format>image/svg+xml</dc:format>
        <dc:type
           rdf:resource="http://purl.org/dc/dcmitype/StillImage" />
        <dc:title></dc:title>
      </cc:Work>
    </rdf:RDF>
  </metadata>
  <g
     inkscape:label="Layer 1"
     inkscape:groupmode="layer"
     id="layer1"
     transform="translate(0,-552.36218)">
    <path
       style="fill:none;stroke:#000000;stroke-width:1px;stroke-linecap:butt;stroke-linejoin:miter;stroke-opacity:1"
       d="m 112.5,823.68571 c -21.236082,9.69315 -21.91278,37.02482 -18.980087,57.01702 3.678761,23.31346 23.336267,43.8418 47.658577,44.46412 39.7468,4.56173 80.03157,4.16439 119.90499,1.62012 19.11611,-1.32056 33.0707,-19.42631 38.36432,-36.57834 6.70446,-22.8255 -0.25182,-49.15994 -17.18139,-65.61123 -15.71725,-8.62286 -34.55955,-4.88676 -51.73911,-6.90331 -36.6093,-1.32239 -73.70618,-3.56207 -109.97971,2.68891 -2.82141,0.69931 -5.60099,1.70577 -8.04759,3.30271 z"
       id="path4103"
       inkscape:connector-curvature="0" />
    <path
       style="fill:none;stroke:#000000;stroke-width:1px;stroke-linecap:butt;stroke-linejoin:miter;stroke-opacity:1"
       d="m 136.02941,717.39159 c -17.54475,8.24152 -23.88687,32.76843 -21.85034,51.19438 1.52749,18.79751 12.96038,38.55636 32.13895,43.58967 10.07443,2.60144 21.26047,3.13196 31.5118,4.01831 33.45265,0.91806 66.25618,4.66391 99.68582,-0.0226 18.92659,-3.83126 31.05282,-22.49828 32.30149,-41.36255 1.93126,-18.13045 -4.43795,-36.04571 -18.82501,-47.27017 -15.76517,-14.81257 -28.19678,-17.75043 -48.97821,-17.24614 -17.83673,0.31754 -46.02961,1.92687 -63.8226,0.12125 -14.07531,0.76467 -29.77163,0.0192 -42.1619,6.9779 z"
       id="path4165"
       inkscape:connector-curvature="0"
       sodipodi:nodetypes="cccccccccc" />
    <path
       style="fill:#dcc429;stroke:#000000;stroke-width:1px;stroke-linecap:butt;stroke-linejoin:miter;stroke-opacity:1;fill-opacity:1"
       d="m 400.20857,745.06503 c -11.9398,-15.2703 -37.26307,-15.99426 -54.77354,-9.90767 -17.986,5.67302 -34.70454,21.21695 -35.34293,41.03472 -0.29388,10.40073 1.67864,21.42426 3.09621,31.61572 6.55068,32.81785 10.20002,65.63226 22.20956,97.18024 7.94774,17.59909 28.8455,25.26633 47.51449,22.28497 18.10551,-2.15256 34.15375,-12.34948 41.89446,-28.87393 10.93208,-18.66661 11.02929,-31.44028 5.91223,-51.58818 -4.27958,-17.31863 -12.12356,-44.44611 -14.3235,-62.19466 -3.87829,-13.55205 -6.64513,-29.02056 -16.18703,-39.5512 z"
       id="path4165-1"
       inkscape:connector-curvature="0"
       sodipodi:nodetypes="cccccccccc" />
    <path
       style="fill:#dcc429;fill-opacity:1;stroke:#000000;stroke-opacity:1"
       d="m 219.00144,264.25539 c -8.08824,-0.32479 -23.47427,-0.93738 -34.19118,-1.36131 -33.0106,-1.30578 -42.3602,-3.34631 -52.15794,-11.38336 -10.73416,-8.80521 -16.76963,-22.15361 -17.49162,-38.68554 -1.18909,-27.22697 10.21566,-45.55032 31.78191,-51.06218 7.71697,-1.97228 21.76712,-2.77506 40.07353,-2.28965 9.50368,0.252 27.20588,0.13856 39.33824,-0.2521 38.6734,-1.24526 46.11764,0.69399 64.10812,16.70037 13.95229,12.41354 19.32473,25.33752 18.40055,44.26448 -1.04357,21.372 -12.94975,37.93334 -30.3858,42.26624 -9.92523,2.46644 -28.74675,3.03703 -59.47581,1.80305 z"
       id="path5008"
       inkscape:connector-curvature="0"
       transform="translate(0,552.36218)" />
    <path
       style="fill:#e3eac3;fill-opacity:0"
       d="m 364.27498,373.54223 c -10.81826,-2.46281 -21.77172,-10.03619 -26.42806,-18.27273 -5.21992,-9.23344 -11.26161,-32.23809 -18.18425,-69.23929 -8.41072,-44.9549 -10.06487,-61.21951 -7.22151,-71.00625 6.28121,-21.61974 33.68676,-37.17944 60.69004,-34.45722 24.92966,2.51317 36.36543,18.53443 44.31271,62.08112 1.03328,5.66176 4.69814,21.45799 8.14414,35.10272 3.446,13.64473 6.63811,27.96848 7.09359,31.83055 0.94132,7.98158 0.21527,14.97829 -2.34589,22.60657 -2.20436,6.56558 -9.10585,19.10608 -13.26556,24.10448 -6.2383,7.49609 -16.45714,13.69299 -27.11287,16.4418 -6.76397,1.74488 -19.77013,2.15419 -25.68234,0.80825 l 0,0 z"
       id="path5010"
       inkscape:connector-curvature="0"
       transform="translate(0,552.36218)" />
    <path
       style="fill:#e3eac3;fill-opacity:0"
       d="m 198.04555,263.19226 c -49.65448,-2.16446 -57.24553,-3.83887 -68.4117,-15.09008 -5.38047,-5.42146 -9.20092,-12.03874 -11.85163,-20.52785 -1.53479,-4.91527 -1.71971,-6.9134 -1.70122,-18.38236 0.0231,-14.34511 0.6524,-17.51984 5.31738,-26.82626 3.19005,-6.364 10.65406,-14.02416 16.35306,-16.7828 2.22426,-1.07667 6.69117,-2.66366 9.92647,-3.52665 5.57302,-1.48655 8.37629,-1.60367 53.30882,-2.22738 30.35137,-0.42131 50.07637,-0.40077 54.78663,0.0571 12.76261,1.24048 20.02355,4.33175 30.7095,13.07426 15.53164,12.70692 21.85681,25.15017 21.85681,42.99805 0,16.10183 -4.47173,28.11973 -13.78362,37.04384 -6.78714,6.50452 -13.4747,9.21511 -26.07711,10.56956 -9.28272,0.99767 -43.01046,0.816 -70.43339,-0.37938 z"
       id="path5012"
       inkscape:connector-curvature="0"
       transform="translate(0,552.36218)" />
    <path
       style="fill:#819425;fill-opacity:0"
       d="m 364.27498,373.54223 c -10.81826,-2.46281 -21.77172,-10.03619 -26.42806,-18.27273 -5.21992,-9.23344 -11.26161,-32.23809 -18.18425,-69.23929 -8.41072,-44.9549 -10.06487,-61.21951 -7.22151,-71.00625 6.28121,-21.61974 33.68676,-37.17944 60.69004,-34.45722 24.92966,2.51317 36.36543,18.53443 44.31271,62.08112 1.03328,5.66176 4.69814,21.45799 8.14414,35.10272 3.446,13.64473 6.63811,27.96848 7.09359,31.83055 0.94132,7.98158 0.21527,14.97829 -2.34589,22.60657 -2.20436,6.56558 -9.10585,19.10608 -13.26556,24.10448 -6.2383,7.49609 -16.45714,13.69299 -27.11287,16.4418 -6.76397,1.74488 -19.77013,2.15419 -25.68234,0.80825 l 0,0 z"
       id="path5014"
       inkscape:connector-curvature="0"
       transform="translate(0,552.36218)" />
    <path
       style="fill:#819425;fill-opacity:0"
       d="m 364.27498,373.54223 c -10.81826,-2.46281 -21.77172,-10.03619 -26.42806,-18.27273 -5.21992,-9.23344 -11.26161,-32.23809 -18.18425,-69.23929 -8.41072,-44.9549 -10.06487,-61.21951 -7.22151,-71.00625 6.28121,-21.61974 33.68676,-37.17944 60.69004,-34.45722 24.92966,2.51317 36.36543,18.53443 44.31271,62.08112 1.03328,5.66176 4.69814,21.45799 8.14414,35.10272 3.446,13.64473 6.63811,27.96848 7.09359,31.83055 0.94132,7.98158 0.21527,14.97829 -2.34589,22.60657 -2.20436,6.56558 -9.10585,19.10608 -13.26556,24.10448 -6.2383,7.49609 -16.45714,13.69299 -27.11287,16.4418 -6.76397,1.74488 -19.77013,2.15419 -25.68234,0.80825 l 0,0 z"
       id="path5016"
       inkscape:connector-curvature="0"
       transform="translate(0,552.36218)" />
    <path
       style="fill:#819425;fill-opacity:0"
       d="m 364.27498,373.54223 c -10.81826,-2.46281 -21.77172,-10.03619 -26.42806,-18.27273 -5.21992,-9.23344 -11.26161,-32.23809 -18.18425,-69.23929 -8.41072,-44.9549 -10.06487,-61.21951 -7.22151,-71.00625 6.28121,-21.61974 33.68676,-37.17944 60.69004,-34.45722 24.92966,2.51317 36.36543,18.53443 44.31271,62.08112 1.03328,5.66176 4.69814,21.45799 8.14414,35.10272 3.446,13.64473 6.63811,27.96848 7.09359,31.83055 0.94132,7.98158 0.21527,14.97829 -2.34589,22.60657 -2.20436,6.56558 -9.10585,19.10608 -13.26556,24.10448 -6.2383,7.49609 -16.45714,13.69299 -27.11287,16.4418 -6.76397,1.74488 -19.77013,2.15419 -25.68234,0.80825 l 0,0 z"
       id="path5018"
       inkscape:connector-curvature="0"
       transform="translate(0,552.36218)" />
    <path
       style="fill:#819425;fill-opacity:0"
       d="m 364.27498,373.54223 c -10.81826,-2.46281 -21.77172,-10.03619 -26.42806,-18.27273 -5.21992,-9.23344 -11.26161,-32.23809 -18.18425,-69.23929 -8.41072,-44.9549 -10.06487,-61.21951 -7.22151,-71.00625 6.28121,-21.61974 33.68676,-37.17944 60.69004,-34.45722 24.92966,2.51317 36.36543,18.53443 44.31271,62.08112 1.03328,5.66176 4.69814,21.45799 8.14414,35.10272 3.446,13.64473 6.63811,27.96848 7.09359,31.83055 0.94132,7.98158 0.21527,14.97829 -2.34589,22.60657 -2.20436,6.56558 -9.10585,19.10608 -13.26556,24.10448 -6.2383,7.49609 -16.45714,13.69299 -27.11287,16.4418 -6.76397,1.74488 -19.77013,2.15419 -25.68234,0.80825 l 0,0 z"
       id="path5020"
       inkscape:connector-curvature="0"
       transform="translate(0,552.36218)" />
    <path
       style="fill:#819425;fill-opacity:0"
       d="m 364.27498,373.54223 c -10.81826,-2.46281 -21.77172,-10.03619 -26.42806,-18.27273 -5.21992,-9.23344 -11.26161,-32.23809 -18.18425,-69.23929 -8.41072,-44.9549 -10.06487,-61.21951 -7.22151,-71.00625 6.28121,-21.61974 33.68676,-37.17944 60.69004,-34.45722 24.92966,2.51317 36.36543,18.53443 44.31271,62.08112 1.03328,5.66176 4.69814,21.45799 8.14414,35.10272 3.446,13.64473 6.63811,27.96848 7.09359,31.83055 0.94132,7.98158 0.21527,14.97829 -2.34589,22.60657 -2.20436,6.56558 -9.10585,19.10608 -13.26556,24.10448 -6.2383,7.49609 -16.45714,13.69299 -27.11287,16.4418 -6.76397,1.74488 -19.77013,2.15419 -25.68234,0.80825 l 0,0 z"
       id="path5022"
       inkscape:connector-curvature="0"
       transform="translate(0,552.36218)" />
    <path
       style="fill:#819425;fill-opacity:0"
       d="m 364.27498,373.54223 c -10.81826,-2.46281 -21.77172,-10.03619 -26.42806,-18.27273 -5.21992,-9.23344 -11.26161,-32.23809 -18.18425,-69.23929 -8.41072,-44.9549 -10.06487,-61.21951 -7.22151,-71.00625 6.28121,-21.61974 33.68676,-37.17944 60.69004,-34.45722 24.92966,2.51317 36.36543,18.53443 44.31271,62.08112 1.03328,5.66176 4.69814,21.45799 8.14414,35.10272 3.446,13.64473 6.63811,27.96848 7.09359,31.83055 0.94132,7.98158 0.21527,14.97829 -2.34589,22.60657 -2.20436,6.56558 -9.10585,19.10608 -13.26556,24.10448 -6.2383,7.49609 -16.45714,13.69299 -27.11287,16.4418 -6.76397,1.74488 -19.77013,2.15419 -25.68234,0.80825 l 0,0 z"
       id="path5024"
       inkscape:connector-curvature="0"
       transform="translate(0,552.36218)" />
    <path
       style="fill:#819425;fill-opacity:0"
       d="m 364.27498,373.54223 c -10.81826,-2.46281 -21.77172,-10.03619 -26.42806,-18.27273 -5.21992,-9.23344 -11.26161,-32.23809 -18.18425,-69.23929 -8.41072,-44.9549 -10.06487,-61.21951 -7.22151,-71.00625 6.28121,-21.61974 33.68676,-37.17944 60.69004,-34.45722 24.92966,2.51317 36.36543,18.53443 44.31271,62.08112 1.03328,5.66176 4.69814,21.45799 8.14414,35.10272 3.446,13.64473 6.63811,27.96848 7.09359,31.83055 0.94132,7.98158 0.21527,14.97829 -2.34589,22.60657 -2.20436,6.56558 -9.10585,19.10608 -13.26556,24.10448 -6.2383,7.49609 -16.45714,13.69299 -27.11287,16.4418 -6.76397,1.74488 -19.77013,2.15419 -25.68234,0.80825 l 0,0 z"
       id="path5026"
       inkscape:connector-curvature="0"
       transform="translate(0,552.36218)" />
    <path
       style="fill:#819425;fill-opacity:0"
       d="m 198.04555,263.19226 c -49.65448,-2.16446 -57.24553,-3.83887 -68.4117,-15.09008 -5.38047,-5.42146 -9.20092,-12.03874 -11.85163,-20.52785 -1.53479,-4.91527 -1.71971,-6.9134 -1.70122,-18.38236 0.0231,-14.34511 0.6524,-17.51984 5.31738,-26.82626 3.19005,-6.364 10.65406,-14.02416 16.35306,-16.7828 2.22426,-1.07667 6.69117,-2.66366 9.92647,-3.52665 5.57302,-1.48655 8.37629,-1.60367 53.30882,-2.22738 30.35137,-0.42131 50.07637,-0.40077 54.78663,0.0571 12.76261,1.24048 20.02355,4.33175 30.7095,13.07426 15.53164,12.70692 21.85681,25.15017 21.85681,42.99805 0,16.10183 -4.47173,28.11973 -13.78362,37.04384 -6.78714,6.50452 -13.4747,9.21511 -26.07711,10.56956 -9.28272,0.99767 -43.01046,0.816 -70.43339,-0.37938 z"
       id="path5028"
       inkscape:connector-curvature="0"
       transform="translate(0,552.36218)" />
    <path
       style="fill:#819425;fill-opacity:0"
       d="m 172.67791,374.56987 c -16.36044,-0.92275 -36.38276,-2.92035 -41.11768,-4.10226 -5.14208,-1.28355 -11.90397,-4.55842 -16.83146,-8.15169 -7.96822,-5.81067 -16.561492,-18.86432 -19.240182,-29.22689 -2.906821,-11.2451 -2.850852,-30.41352 0.115935,-39.70588 4.462737,-13.97787 14.281627,-22.48594 28.911617,-25.0519 17.75029,-3.11324 47.66715,-4.08388 79.77941,-2.58841 8.89706,0.41434 25.44118,0.94982 36.76471,1.18996 34.63834,0.73459 39.60511,2.3611 48.78944,15.97749 3.61224,5.35537 7.21493,13.33546 9.04352,20.03168 2.38254,8.72481 2.40042,24.87255 0.0365,33.03809 -5.08353,17.56022 -16.85679,31.41534 -30.66365,36.08587 -7.74404,2.61962 -66.3283,4.15425 -95.58823,2.50394 l 3e-5,0 z"
       id="path5030"
       inkscape:connector-curvature="0"
       transform="translate(0,552.36218)" />
    <path
       style="fill:#819425;fill-opacity:0"
       d="m 364.27498,373.54223 c -10.81826,-2.46281 -21.77172,-10.03619 -26.42806,-18.27273 -5.21992,-9.23344 -11.26161,-32.23809 -18.18425,-69.23929 -8.41072,-44.9549 -10.06487,-61.21951 -7.22151,-71.00625 6.28121,-21.61974 33.68676,-37.17944 60.69004,-34.45722 24.92966,2.51317 36.36543,18.53443 44.31271,62.08112 1.03328,5.66176 4.69814,21.45799 8.14414,35.10272 3.446,13.64473 6.63811,27.96848 7.09359,31.83055 0.94132,7.98158 0.21527,14.97829 -2.34589,22.60657 -2.20436,6.56558 -9.10585,19.10608 -13.26556,24.10448 -6.2383,7.49609 -16.45714,13.69299 -27.11287,16.4418 -6.76397,1.74488 -19.77013,2.15419 -25.68234,0.80825 l 0,0 z"
       id="path5032"
       inkscape:connector-curvature="0"
       transform="translate(0,552.36218)" />
    <path
       style="fill:#819425;fill-opacity:0"
       d="m 172.67791,374.56987 c -16.36044,-0.92275 -36.38276,-2.92035 -41.11768,-4.10226 -5.14208,-1.28355 -11.90397,-4.55842 -16.83146,-8.15169 -7.96822,-5.81067 -16.561492,-18.86432 -19.240182,-29.22689 -2.906821,-11.2451 -2.850852,-30.41352 0.115935,-39.70588 4.462737,-13.97787 14.281627,-22.48594 28.911617,-25.0519 17.75029,-3.11324 47.66715,-4.08388 79.77941,-2.58841 8.89706,0.41434 25.44118,0.94982 36.76471,1.18996 34.63834,0.73459 39.60511,2.3611 48.78944,15.97749 3.61224,5.35537 7.21493,13.33546 9.04352,20.03168 2.38254,8.72481 2.40042,24.87255 0.0365,33.03809 -5.08353,17.56022 -16.85679,31.41534 -30.66365,36.08587 -7.74404,2.61962 -66.3283,4.15425 -95.58823,2.50394 l 3e-5,0 z"
       id="path5034"
       inkscape:connector-curvature="0"
       transform="translate(0,552.36218)" />
    <path
       style="fill:#819425;fill-opacity:0"
       d="m 198.04555,263.19226 c -49.65448,-2.16446 -57.24553,-3.83887 -68.4117,-15.09008 -5.38047,-5.42146 -9.20092,-12.03874 -11.85163,-20.52785 -1.53479,-4.91527 -1.71971,-6.9134 -1.70122,-18.38236 0.0231,-14.34511 0.6524,-17.51984 5.31738,-26.82626 3.19005,-6.364 10.65406,-14.02416 16.35306,-16.7828 2.22426,-1.07667 6.69117,-2.66366 9.92647,-3.52665 5.57302,-1.48655 8.37629,-1.60367 53.30882,-2.22738 30.35137,-0.42131 50.07637,-0.40077 54.78663,0.0571 12.76261,1.24048 20.02355,4.33175 30.7095,13.07426 15.53164,12.70692 21.85681,25.15017 21.85681,42.99805 0,16.10183 -4.47173,28.11973 -13.78362,37.04384 -6.78714,6.50452 -13.4747,9.21511 -26.07711,10.56956 -9.28272,0.99767 -43.01046,0.816 -70.43339,-0.37938 z"
       id="path5036"
       inkscape:connector-curvature="0"
       transform="translate(0,552.36218)" />
    <path
       style="fill:#819425;fill-opacity:1;stroke:#000000;stroke-opacity:1"
       d="m 364.27498,373.54223 c -10.81826,-2.46281 -21.77172,-10.03619 -26.42806,-18.27273 -5.21992,-9.23344 -11.26161,-32.23809 -18.18425,-69.23929 -8.41072,-44.9549 -10.06487,-61.21951 -7.22151,-71.00625 6.28121,-21.61974 33.68676,-37.17944 60.69004,-34.45722 24.92966,2.51317 36.36543,18.53443 44.31271,62.08112 1.03328,5.66176 4.69814,21.45799 8.14414,35.10272 3.446,13.64473 6.63811,27.96848 7.09359,31.83055 0.94132,7.98158 0.21527,14.97829 -2.34589,22.60657 -2.20436,6.56558 -9.10585,19.10608 -13.26556,24.10448 -6.2383,7.49609 -16.45714,13.69299 -27.11287,16.4418 -6.76397,1.74488 -19.77013,2.15419 -25.68234,0.80825 l 0,0 z"
       id="path5038"
       inkscape:connector-curvature="0"
       transform="translate(0,552.36218)" />
    <path
       style="fill:#d95641;fill-opacity:1;stroke:#000000;stroke-opacity:1"
       d="m 172.67791,374.56987 c -16.36044,-0.92275 -36.38276,-2.92035 -41.11768,-4.10226 -5.14208,-1.28355 -11.90397,-4.55842 -16.83146,-8.15169 -7.96822,-5.81067 -16.561492,-18.86432 -19.240182,-29.22689 -2.906821,-11.2451 -2.850852,-30.41352 0.115935,-39.70588 4.462737,-13.97787 14.281627,-22.48594 28.911617,-25.0519 17.75029,-3.11324 47.66715,-4.08388 79.77941,-2.58841 8.89706,0.41434 25.44118,0.94982 36.76471,1.18996 34.63834,0.73459 39.60511,2.3611 48.78944,15.97749 3.61224,5.35537 7.21493,13.33546 9.04352,20.03168 2.38254,8.72481 2.40042,24.87255 0.0365,33.03809 -5.08353,17.56022 -16.85679,31.41534 -30.66365,36.08587 -7.74404,2.61962 -66.3283,4.15425 -95.58823,2.50394 l 3e-5,0 z"
       id="path5040"
       inkscape:connector-curvature="0"
       transform="translate(0,552.36218)" />
  </g>
</svg>
